<?xml version="1.0" encoding="utf-8"?>
<!-- Generator: Adobe Illustrator 18.1.1, SVG Export Plug-In . SVG Version: 6.00 Build 0)  -->
<svg version="1.1" xmlns="http://www.w3.org/2000/svg" xmlns:xlink="http://www.w3.org/1999/xlink" x="0px" y="0px" width="30px"
	 height="15px" viewBox="0 0 30 15" enable-background="new 0 0 30 15" xml:space="preserve">
<g id="Layer_3">
	<path fill="#FFFFFF" d="M22.5,12.2c0,0.3-0.2,0.5-0.4,0.6c-0.1,0-0.2,0.1-0.3,0.1c-0.2,0-0.3-0.1-0.4-0.2l-3.7-3.1h-2
		c-0.4,0-0.7-0.3-0.7-0.7V6.2c0-0.4,0.3-0.7,0.7-0.7h2l3.7-3.1c0.2-0.2,0.5-0.2,0.7-0.1c0.2,0.1,0.4,0.4,0.4,0.6L22.5,12.2
		L22.5,12.2z"/>
</g>
<g id="Layer_2">
	<path fill="#FFFFFF" d="M7.5,12.2c0,0.3-0.2,0.5-0.4,0.6c-0.1,0-0.2,0.1-0.3,0.1c-0.2,0-0.3-0.1-0.4-0.2L2.7,9.6h-2
		C0.3,9.6,0,9.3,0,8.9V6.2c0-0.4,0.3-0.7,0.7-0.7h2l3.7-3.1c0.2-0.2,0.5-0.2,0.7-0.1C7.4,2.5,7.5,2.7,7.5,3L7.5,12.2L7.5,12.2z
		 M10.1,11.1C10.1,11.1,10.1,11.1,10.1,11.1c-0.2,0-0.4-0.1-0.5-0.2l-0.1-0.1c-0.2-0.2-0.3-0.6-0.1-0.9c0.5-0.7,0.8-1.5,0.8-2.4
		c0-0.9-0.3-1.8-0.9-2.5c-0.2-0.3-0.2-0.7,0-0.9l0.1-0.1C9.6,3.9,9.8,3.9,10,3.9c0.2,0,0.4,0.1,0.5,0.2c0.8,1,1.2,2.2,1.2,3.4
		c0,1.2-0.4,2.3-1.1,3.3C10.5,11,10.3,11.1,10.1,11.1z M12.9,13.2c-0.1,0.1-0.3,0.2-0.5,0.2c0,0,0,0,0,0c-0.2,0-0.4-0.1-0.5-0.2
		l-0.1-0.1c-0.3-0.2-0.3-0.6,0-0.9c1.1-1.3,1.7-3,1.7-4.7c0-1.8-0.6-3.5-1.8-4.8c-0.2-0.3-0.2-0.7,0-0.9l0.1-0.1
		c0.1-0.1,0.3-0.2,0.5-0.2c0.2,0,0.4,0.1,0.5,0.2C14.2,3.4,15,5.4,15,7.6C15,9.6,14.3,11.6,12.9,13.2z"/>
</g>
</svg>
