<?xml version="1.0" encoding="utf-8"?>
<!-- Generator: Adobe Illustrator 19.1.0, SVG Export Plug-In . SVG Version: 6.00 Build 0)  -->
<svg version="1.1" xmlns="http://www.w3.org/2000/svg" xmlns:xlink="http://www.w3.org/1999/xlink" x="0px" y="0px" width="60px"
	 height="15px" viewBox="5 3 60 15" style="enable-background:new 5 3 60 15;" xml:space="preserve">
<style type="text/css">
	.st0{fill:#2165AF;}
	.st1{fill:#FFFFFF;}
</style>
<g id="Hover">
	<path class="st0" d="M55,15.2c0,0.3-0.2,0.5-0.4,0.6c-0.1,0-0.2,0.1-0.3,0.1c-0.2,0-0.3-0.1-0.4-0.2l-3.7-3.1h-2
		c-0.4,0-0.7-0.3-0.7-0.7V9.2c0-0.4,0.3-0.7,0.7-0.7h2l3.7-3.1c0.2-0.2,0.5-0.2,0.7-0.1C54.9,5.5,55,5.7,55,6V15.2L55,15.2z
		 M57.6,14.1L57.6,14.1c-0.2,0-0.4-0.1-0.5-0.2L57,13.8c-0.2-0.2-0.3-0.6-0.1-0.9c0.5-0.7,0.8-1.5,0.8-2.4c0-0.9-0.3-1.8-0.9-2.5
		c-0.2-0.3-0.2-0.7,0-0.9L56.9,7c0.2-0.1,0.4-0.1,0.6-0.1S57.9,7,58,7.1c0.8,1,1.2,2.2,1.2,3.4s-0.4,2.3-1.1,3.3
		C58,14,57.8,14.1,57.6,14.1z M60.4,16.2c-0.1,0.1-0.3,0.2-0.5,0.2l0,0c-0.2,0-0.4-0.1-0.5-0.2l-0.1-0.1c-0.3-0.2-0.3-0.6,0-0.9
		c1.1-1.3,1.7-3,1.7-4.7c0-1.8-0.6-3.5-1.8-4.8C59,5.4,59,5,59.2,4.8l0.1-0.1c0.1-0.1,0.3-0.2,0.5-0.2s0.4,0.1,0.5,0.2
		c1.4,1.7,2.2,3.7,2.2,5.9C62.5,12.6,61.8,14.6,60.4,16.2z"/>
</g>
<g id="Muted">
	<path class="st1" d="M38.8,15.2c0,0.3-0.2,0.5-0.4,0.6c-0.1,0-0.2,0.1-0.3,0.1c-0.2,0-0.3-0.1-0.4-0.2l-3.7-3.1h-2
		c-0.4,0-0.7-0.3-0.7-0.7V9.2c0-0.4,0.3-0.7,0.7-0.7h2l3.7-3.1c0.2-0.2,0.5-0.2,0.7-0.1c0.2,0.1,0.4,0.4,0.4,0.6V15.2L38.8,15.2z"/>
</g>
<g id="Idle__x28_White_x29_">
	<path class="st1" d="M15,15.2c0,0.3-0.2,0.5-0.4,0.6c-0.1,0-0.2,0.1-0.3,0.1c-0.2,0-0.3-0.1-0.4-0.2l-3.7-3.1h-2
		c-0.4,0-0.7-0.3-0.7-0.7V9.2c0-0.4,0.3-0.7,0.7-0.7h2l3.7-3.1c0.2-0.2,0.5-0.2,0.7-0.1C14.9,5.5,15,5.7,15,6V15.2L15,15.2z
		 M17.6,14.1L17.6,14.1c-0.2,0-0.4-0.1-0.5-0.2L17,13.8c-0.2-0.2-0.3-0.6-0.1-0.9c0.5-0.7,0.8-1.5,0.8-2.4c0-0.9-0.3-1.8-0.9-2.5
		c-0.2-0.3-0.2-0.7,0-0.9L16.9,7c0.2-0.1,0.4-0.1,0.6-0.1S17.9,7,18,7.1c0.8,1,1.2,2.2,1.2,3.4s-0.4,2.3-1.1,3.3
		C18,14,17.8,14.1,17.6,14.1z M20.4,16.2c-0.1,0.1-0.3,0.2-0.5,0.2l0,0c-0.2,0-0.4-0.1-0.5-0.2l-0.1-0.1c-0.3-0.2-0.3-0.6,0-0.9
		c1.1-1.3,1.7-3,1.7-4.7c0-1.8-0.6-3.5-1.8-4.8C19,5.4,19,5,19.2,4.8l0.1-0.1c0.1-0.1,0.3-0.2,0.5-0.2s0.4,0.1,0.5,0.2
		c1.4,1.7,2.2,3.7,2.2,5.9C22.5,12.6,21.8,14.6,20.4,16.2z"/>
</g>
</svg>
