<?xml version="1.0" encoding="utf-8"?>
<!-- Generator: Adobe Illustrator 18.1.1, SVG Export Plug-In . SVG Version: 6.00 Build 0)  -->
<svg version="1.1" xmlns="http://www.w3.org/2000/svg" xmlns:xlink="http://www.w3.org/1999/xlink" x="0px" y="0px" width="200px"
	 height="200px" viewBox="0 0 200 200" enable-background="new 0 0 200 200" xml:space="preserve">
<g id="Pause__x28_Hover_x29_">
	<path fill="#FFFFFF" d="M150,100c-27.6,0-50,22.4-50,50c0,27.6,22.4,50,50,50c27.6,0,50-22.4,50-50C200,122.4,177.6,100,150,100z
		 M147.1,167.5h-14.6v-35h14.6V167.5z M167.5,167.5h-14.6v-35h14.6V167.5z"/>
</g>
<g id="Pause__x28_Idle_x29_">
	<path fill="#FFFFFF" d="M50,100c-27.6,0-50,22.4-50,50c0,27.6,22.4,50,50,50c27.6,0,50-22.4,50-50C100,122.4,77.6,100,50,100z
		 M50,190.6c-22.4,0-40.6-18.2-40.6-40.6c0-22.4,18.2-40.6,40.6-40.6c22.4,0,40.6,18.2,40.6,40.6C90.6,172.4,72.4,190.6,50,190.6z"
		/>
	<path fill="#FFFFFF" d="M32.5,132.5h14.6v35H32.5V132.5z M52.9,132.5h14.6v35H52.9V132.5z"/>
</g>
<g id="Play__x28_Hover_x29_">
	<path fill="#FFFFFF" d="M150,0c-27.6,0-50,22.4-50,50c0,27.6,22.4,50,50,50c27.6,0,50-22.4,50-50C200,22.4,177.6,0,150,0z
		 M137.5,28.1L175,50l-37.5,21.9V28.1z"/>
</g>
<g id="Play__x28_Idle_x29_">
	<path fill="#FFFFFF" d="M50,0C22.4,0,0,22.4,0,50c0,27.6,22.4,50,50,50c27.6,0,50-22.4,50-50C100,22.4,77.6,0,50,0z M50,90.6
		C27.6,90.6,9.4,72.4,9.4,50C9.4,27.6,27.6,9.4,50,9.4c22.4,0,40.6,18.2,40.6,40.6C90.6,72.4,72.4,90.6,50,90.6z M37.5,28.1L75,50
		L37.5,71.9V28.1z"/>
</g>
</svg>
