<?xml version="1.0" encoding="utf-8"?>
<!-- Generator: Adobe Illustrator 19.1.0, SVG Export Plug-In . SVG Version: 6.00 Build 0)  -->
<svg version="1.1" id="Layer_1" xmlns="http://www.w3.org/2000/svg" xmlns:xlink="http://www.w3.org/1999/xlink" x="0px" y="0px"
	 width="260px" height="200px" viewBox="15 8 260 200" style="enable-background:new 15 8 260 200;" xml:space="preserve">
<style type="text/css">
	.st0{fill:#2165AF;}
	.st1{fill:#FFFFFF;}
</style>
<g id="Hover">
	<path class="st0" d="M65,20.2c0,0.3-0.2,0.5-0.4,0.6c-0.1,0-0.2,0.1-0.3,0.1c-0.2,0-0.3-0.1-0.4-0.2l-3.7-3.1h-2
		c-0.4,0-0.7-0.3-0.7-0.7v-2.7c0-0.4,0.3-0.7,0.7-0.7h2l3.7-3.1c0.2-0.2,0.5-0.2,0.7-0.1c0.3,0.2,0.4,0.4,0.4,0.7V20.2L65,20.2z
		 M67.6,19.1L67.6,19.1c-0.2,0-0.4-0.1-0.5-0.2L67,18.8c-0.2-0.2-0.3-0.6-0.1-0.9c0.5-0.7,0.8-1.5,0.8-2.4s-0.3-1.8-0.9-2.5
		c-0.2-0.3-0.2-0.7,0-0.9l0.1-0.1c0.2-0.1,0.4-0.1,0.6-0.1s0.4,0.1,0.5,0.2c0.8,1,1.2,2.2,1.2,3.4c0,1.2-0.4,2.3-1.1,3.3
		C68,19,67.8,19.1,67.6,19.1z M70.4,21.2c-0.1,0.1-0.3,0.2-0.5,0.2l0,0c-0.2,0-0.4-0.1-0.5-0.2l-0.1-0.1c-0.3-0.2-0.3-0.6,0-0.9
		c1.1-1.3,1.7-3,1.7-4.7c0-1.8-0.6-3.5-1.8-4.8c-0.2-0.3-0.2-0.7,0-0.9l0.1-0.1c0.1-0.1,0.3-0.2,0.5-0.2c0.2,0,0.4,0.1,0.5,0.2
		c1.4,1.7,2.2,3.7,2.2,5.9C72.5,17.6,71.8,19.6,70.4,21.2z"/>
</g>
<g id="Muted">
	<path class="st1" d="M48.8,20.2c0,0.3-0.2,0.5-0.4,0.6c-0.1,0-0.2,0.1-0.3,0.1c-0.2,0-0.3-0.1-0.4-0.2L44,17.6h-2
		c-0.4,0-0.7-0.3-0.7-0.7v-2.7c0-0.4,0.3-0.7,0.7-0.7h2l3.7-3.1c0.2-0.2,0.5-0.2,0.7-0.1c0.2,0.1,0.4,0.4,0.4,0.6V20.2L48.8,20.2z"
		/>
</g>
<g id="Idle__x28_White_x29_">
	<path class="st1" d="M25,20.2c0,0.3-0.2,0.5-0.4,0.6c-0.1,0-0.2,0.1-0.3,0.1c-0.2,0-0.3-0.1-0.4-0.2l-3.7-3.1h-2
		c-0.4,0-0.7-0.3-0.7-0.7v-2.7c0-0.4,0.3-0.7,0.7-0.7h2l3.7-3.1c0.2-0.2,0.5-0.2,0.7-0.1c0.3,0.2,0.4,0.4,0.4,0.7V20.2L25,20.2z
		 M27.6,19.1L27.6,19.1c-0.2,0-0.4-0.1-0.5-0.2L27,18.8c-0.2-0.2-0.3-0.6-0.1-0.9c0.5-0.7,0.8-1.5,0.8-2.4s-0.3-1.8-0.9-2.5
		c-0.2-0.3-0.2-0.7,0-0.9l0.1-0.1c0.2-0.1,0.4-0.1,0.6-0.1s0.4,0.1,0.5,0.2c0.8,1,1.2,2.2,1.2,3.4c0,1.2-0.4,2.3-1.1,3.3
		C28,19,27.8,19.1,27.6,19.1z M30.4,21.2c-0.1,0.1-0.3,0.2-0.5,0.2l0,0c-0.2,0-0.4-0.1-0.5-0.2l-0.1-0.1c-0.3-0.2-0.3-0.6,0-0.9
		c1.1-1.3,1.7-3,1.7-4.7c0-1.8-0.6-3.5-1.8-4.8c-0.2-0.3-0.2-0.7,0-0.9l0.1-0.1c0.1-0.1,0.3-0.2,0.5-0.2s0.4,0.1,0.5,0.2
		c1.4,1.7,2.2,3.7,2.2,5.9C32.5,17.6,31.8,19.6,30.4,21.2z"/>
</g>
<g id="Pause__x28_Hover_x29_">
	<path class="st1" d="M225,108c-27.6,0-50,22.4-50,50s22.4,50,50,50s50-22.4,50-50S252.6,108,225,108z M222.1,175.5h-14.6v-35h14.6
		V175.5z M242.5,175.5h-14.6v-35h14.6V175.5z"/>
</g>
<g id="Pause__x28_Idle_x29_">
	<path class="st1" d="M125,108c-27.6,0-50,22.4-50,50s22.4,50,50,50s50-22.4,50-50S152.6,108,125,108z M125,198.6
		c-22.4,0-40.6-18.2-40.6-40.6s18.2-40.6,40.6-40.6s40.6,18.2,40.6,40.6S147.4,198.6,125,198.6z"/>
	<path class="st1" d="M107.5,140.5h14.6v35h-14.6V140.5z M127.9,140.5h14.6v35h-14.6V140.5z"/>
</g>
<g id="Play__x28_Hover_x29_">
	<path class="st1" d="M225,8c-27.6,0-50,22.4-50,50s22.4,50,50,50s50-22.4,50-50S252.6,8,225,8z M212.5,36.1L250,58l-37.5,21.9V36.1
		z"/>
</g>
<g id="Play__x28_Idle_x29_">
	<path class="st1" d="M125,8C97.4,8,75,30.4,75,58s22.4,50,50,50s50-22.4,50-50S152.6,8,125,8z M125,98.6
		c-22.4,0-40.6-18.2-40.6-40.6s18.2-40.6,40.6-40.6s40.6,18.2,40.6,40.6S147.4,98.6,125,98.6z M112.5,36.1L150,58l-37.5,21.9V36.1z"
		/>
</g>
</svg>
