<?xml version="1.0" encoding="UTF-8" standalone="no"?>
<!-- Generator: Adobe Illustrator 19.1.0, SVG Export Plug-In . SVG Version: 6.00 Build 0)  -->
<svg style="enable-background:new 0 0 30 150" xmlns="http://www.w3.org/2000/svg" xml:space="preserve" height="150px" width="30px" version="1.1" y="0px" x="0px" xmlns:xlink="http://www.w3.org/1999/xlink" viewBox="0 0 30 150">
<style type="text/css">
	.st0{opacity:0.12;fill-rule:evenodd;clip-rule:evenodd;fill:#010101;}
	.st1{fill:#FFFFFF;}
</style>
<g id="YouTube">
	<path id="The_Sharpness" d="m11.9 130.5l7.1 4.7 1-0.5-8.1-4.2z" class="st0"/>
	<g id="Lozenge">
			<path class="st1" d="m29.7 129s-0.3-2.1-1.2-3c-1.1-1.2-2.4-1.2-3-1.3-4.2-0.3-10.5-0.3-10.5-0.3s-6.3 0-10.5 0.3c-0.6 0.1-1.9 0.1-3 1.3-0.9 0.9-1.2 3-1.2 3s-0.3 2.4-0.3 4.9v2.3c0 2.4 0.3 4.9 0.3 4.9s0.3 2.1 1.2 3c1.1 1.2 2.6 1.2 3.3 1.3 2.4 0.2 10.2 0.3 10.2 0.3s6.3 0 10.5-0.3c0.6-0.1 1.9-0.1 3-1.3 0.9-0.9 1.2-3 1.2-3s0.3-2.4 0.3-4.9v-2.3c0-2.5-0.3-4.9-0.3-4.9zm-17.8 9.9v-8.4l8.1 4.2-8.1 4.2z"/>
	</g>
</g>
<g id="Steam">
	<path class="st1" d="m26 98.1c-2.2 0-4 1.8-4 4v0.1l-2.6 3.8c-0.4 0-0.8 0.1-1.2 0.2-0.2 0.1-0.3 0.2-0.5 0.3l-11.7-4.9c-0.2-0.9-0.8-1.7-1.7-2.1-1.5-0.6-3.2 0.1-3.9 1.6-0.6 1.5 0.1 3.2 1.6 3.9 0.7 0.3 1.5 0.3 2.3 0 0.2-0.1 0.3-0.2 0.5-0.3l11.8 4.9c0.2 0.9 0.8 1.7 1.7 2.1 1.5 0.6 3.2-0.1 3.9-1.6 0.2-0.4 0.2-0.8 0.2-1.2l3.7-2.7h0.1c2.2 0 4-1.8 4-4-0.2-2.3-2-4.1-4.2-4.1zm-22.3 2.6c-0.9-0.4-1.8 0-2.2 0.9s0 1.8 0.9 2.2l1.4 0.6c-0.3 0.1-0.5 0.1-0.8 0.1s-0.6-0.1-0.9-0.2c-0.9-0.4-1.4-1.2-1.4-2.1 0-0.3 0.1-0.6 0.2-0.9 0.5-1.2 1.8-1.7 3-1.2 0.5 0.2 1 0.6 1.2 1.1l-1.4-0.5zm17.6 9.1c-0.5 1.2-1.8 1.7-3 1.2-0.5-0.2-0.9-0.6-1.2-1.1l1.3 0.5c0.2 0.1 0.4 0.1 0.6 0.1 0.7 0 1.3-0.4 1.5-1 0.4-0.9 0-1.8-0.9-2.2l-1.4-0.6c0.5-0.2 1.1-0.2 1.7 0s1 0.7 1.2 1.2c0.4 0.7 0.4 1.3 0.2 1.9zm4.7-5c-1.5 0-2.7-1.2-2.7-2.7s1.2-2.7 2.7-2.7 2.7 1.2 2.7 2.7-1.3 2.7-2.7 2.7z"/>
	<path class="st1" d="m26 100.1c-1.1 0-2 0.9-2 2s0.9 2 2 2 2-0.9 2-2-0.9-2-2-2z"/>
</g>
<g id="Facebook">
	<path class="st1" d="m30 60.7v28.5c0 0.2-0.1 0.4-0.2 0.5s-0.3 0.2-0.5 0.2h-28.5c-0.2 0-0.4-0.1-0.5-0.2s-0.3-0.2-0.3-0.4v-28.6c0-0.2 0.1-0.4 0.2-0.5s0.4-0.2 0.6-0.2h28.5c0.2 0 0.4 0.1 0.5 0.2s0.2 0.3 0.2 0.5zm-9.1 25.8v-10.6h3.9l0.2-3.8h-4.1v-2.8c0-0.5 0.1-0.9 0.3-1.3 0.2-0.3 0.6-0.4 1.3-0.4h2.4l0.1-3.6h-1-0.8-0.9c-0.9-0.1-1.7 0-2.4 0.3s-1.2 0.6-1.7 1.1c-0.4 0.5-0.8 1-1 1.6s-0.3 1.2-0.3 1.9v3.3h-2.8v3.8h2.8v10.6h4v-0.1z"/>
</g>
<g id="Twitter">
	<path class="st1" d="m30 35.7c-1.1 0.5-2.3 0.8-3.5 1 1.3-0.8 2.2-2 2.7-3.4-1.2 0.7-2.5 1.2-3.9 1.5-1.1-1.2-2.7-1.9-4.5-1.9-3.4 0-6.2 2.8-6.2 6.2 0 0.5 0.1 1 0.2 1.4-5.1-0.3-9.7-2.7-12.7-6.4-0.5 0.9-0.8 2-0.8 3.1 0 2.1 1.1 4 2.7 5.1-1 0-2-0.3-2.8-0.8v0.1c0 3 2.1 5.5 4.9 6-0.5 0.1-1.1 0.2-1.6 0.2-0.4 0-0.8 0-1.2-0.1 0.8 2.4 3.1 4.2 5.7 4.3-2.1 1.7-4.8 2.6-7.6 2.6-0.5 0-1 0-1.5-0.1 2.7 1.7 6 2.8 9.4 2.8 11.3 0 17.5-9.4 17.5-17.5v-0.8c1.3-1 2.4-2.1 3.2-3.3z"/>
</g>
<g id="Email">
		<path class="st1" d="m1.4 4.9c0.2-0.1 0.5-0.1 0.8-0.1h25.7c0.3 0 0.5 0.1 0.8 0.1l-11.6 10.9c-1.2 1.1-3 1.1-4.2 0l-11.5-10.9zm28.3 19.3c0.2-0.3 0.3-0.7 0.3-1.1v-16.1c0-0.3-0.1-0.6-0.2-0.8l-10.7 10.1 10.6 7.9zm-11.6-7c-0.9 0.8-2 1.2-3.1 1.2s-2.2-0.4-3.1-1.2l-10.6 7.8c0.3 0.1 0.5 0.2 0.9 0.2h25.7c0.3 0 0.6-0.1 0.9-0.2l-10.7-7.8zm-17.9-11.1c-0.1 0.3-0.2 0.6-0.2 0.9v16c0 0.4 0.1 0.8 0.3 1.1l10.6-7.9-10.7-10.1z"/>
</g>
</svg>
