<?xml version="1.0" encoding="utf-8"?>
<!-- Generator: Adobe Illustrator 19.1.0, SVG Export Plug-In . SVG Version: 6.00 Build 0)  -->
<svg version="1.1" xmlns="http://www.w3.org/2000/svg" xmlns:xlink="http://www.w3.org/1999/xlink" x="0px" y="0px" width="30px"
	 height="150px" viewBox="0 0 30 150" style="enable-background:new 0 0 30 150;" xml:space="preserve">
<style type="text/css">
	.st0{opacity:0.12;fill-rule:evenodd;clip-rule:evenodd;fill:#010101;}
	.st1{fill:#FFFFFF;}
</style>
<g id="YouTube">
	<path id="The_Sharpness" class="st0" d="M11.9,130.5l7.1,4.7l1-0.5L11.9,130.5z"/>
	<g id="Lozenge">
		<g>
			<path class="st1" d="M29.7,129c0,0-0.3-2.1-1.2-3c-1.1-1.2-2.4-1.2-3-1.3c-4.2-0.3-10.5-0.3-10.5-0.3h0c0,0-6.3,0-10.5,0.3
				c-0.6,0.1-1.9,0.1-3,1.3c-0.9,0.9-1.2,3-1.2,3S0,131.4,0,133.9v2.3c0,2.4,0.3,4.9,0.3,4.9s0.3,2.1,1.2,3c1.1,1.2,2.6,1.2,3.3,1.3
				c2.4,0.2,10.2,0.3,10.2,0.3s6.3,0,10.5-0.3c0.6-0.1,1.9-0.1,3-1.3c0.9-0.9,1.2-3,1.2-3s0.3-2.4,0.3-4.9v-2.3
				C30,131.4,29.7,129,29.7,129z M11.9,138.9l0-8.4l8.1,4.2L11.9,138.9z"/>
		</g>
	</g>
</g>
<g id="Steam">
	<path class="st1" d="M26,98.1c-2.2,0-4,1.8-4,4c0,0,0,0,0,0.1l-2.6,3.8c-0.4,0-0.8,0.1-1.2,0.2c-0.2,0.1-0.3,0.2-0.5,0.3l-11.7-4.9
		c-0.2-0.9-0.8-1.7-1.7-2.1c-1.5-0.6-3.2,0.1-3.9,1.6c-0.6,1.5,0.1,3.2,1.6,3.9c0.7,0.3,1.5,0.3,2.3,0c0.2-0.1,0.3-0.2,0.5-0.3
		l11.8,4.9c0.2,0.9,0.8,1.7,1.7,2.1c1.5,0.6,3.2-0.1,3.9-1.6c0.2-0.4,0.2-0.8,0.2-1.2l3.7-2.7c0,0,0.1,0,0.1,0c2.2,0,4-1.8,4-4
		C30,99.9,28.2,98.1,26,98.1z M3.7,100.7c-0.9-0.4-1.8,0-2.2,0.9c-0.4,0.9,0,1.8,0.9,2.2l1.4,0.6c-0.3,0.1-0.5,0.1-0.8,0.1
		c-0.3,0-0.6-0.1-0.9-0.2c-0.9-0.4-1.4-1.2-1.4-2.1c0-0.3,0.1-0.6,0.2-0.9c0.5-1.2,1.8-1.7,3-1.2c0.5,0.2,1,0.6,1.2,1.1L3.7,100.7z
		 M21.3,109.8c-0.5,1.2-1.8,1.7-3,1.2c-0.5-0.2-0.9-0.6-1.2-1.1l1.3,0.5c0.2,0.1,0.4,0.1,0.6,0.1c0.7,0,1.3-0.4,1.5-1
		c0.4-0.9,0-1.8-0.9-2.2l-1.4-0.6c0.5-0.2,1.1-0.2,1.7,0c0.6,0.2,1,0.7,1.2,1.2C21.5,108.6,21.5,109.2,21.3,109.8z M26,104.8
		c-1.5,0-2.7-1.2-2.7-2.7c0-1.5,1.2-2.7,2.7-2.7c1.5,0,2.7,1.2,2.7,2.7C28.7,103.6,27.4,104.8,26,104.8z"/>
	<path class="st1" d="M26,100.1c-1.1,0-2,0.9-2,2c0,1.1,0.9,2,2,2c1.1,0,2-0.9,2-2C28,101,27.1,100.1,26,100.1z"/>
</g>
<g id="Facebook">
	<path class="st1" d="M30,60.7v28.5c0,0.2-0.1,0.4-0.2,0.5c-0.1,0.1-0.3,0.2-0.5,0.2H0.8c-0.2,0-0.4-0.1-0.5-0.2S0,89.5,0,89.3V60.7
		c0-0.2,0.1-0.4,0.2-0.5S0.6,60,0.8,60h28.5c0.2,0,0.4,0.1,0.5,0.2S30,60.5,30,60.7z M20.9,86.5V75.9h3.9l0.2-3.8h-4.1v-2.8
		c0-0.5,0.1-0.9,0.3-1.3c0.2-0.3,0.6-0.4,1.3-0.4h2.4l0.1-3.6C24.6,64,24.3,64,24,64c-0.3,0-0.6,0-0.8,0c-0.3,0-0.6,0-0.9,0
		c-0.9-0.1-1.7,0-2.4,0.3c-0.7,0.3-1.2,0.6-1.7,1.1c-0.4,0.5-0.8,1-1,1.6c-0.2,0.6-0.3,1.2-0.3,1.9v3.3h-2.8v3.8h2.8v10.6H20.9
		L20.9,86.5z"/>
</g>
<g id="Twitter">
	<path class="st1" d="M30,35.7c-1.1,0.5-2.3,0.8-3.5,1c1.3-0.8,2.2-2,2.7-3.4c-1.2,0.7-2.5,1.2-3.9,1.5c-1.1-1.2-2.7-1.9-4.5-1.9
		c-3.4,0-6.2,2.8-6.2,6.2c0,0.5,0.1,1,0.2,1.4c-5.1-0.3-9.7-2.7-12.7-6.4c-0.5,0.9-0.8,2-0.8,3.1c0,2.1,1.1,4,2.7,5.1
		c-1,0-2-0.3-2.8-0.8c0,0,0,0.1,0,0.1c0,3,2.1,5.5,4.9,6c-0.5,0.1-1.1,0.2-1.6,0.2c-0.4,0-0.8,0-1.2-0.1c0.8,2.4,3.1,4.2,5.7,4.3
		c-2.1,1.7-4.8,2.6-7.6,2.6c-0.5,0-1,0-1.5-0.1c2.7,1.7,6,2.8,9.4,2.8c11.3,0,17.5-9.4,17.5-17.5c0-0.3,0-0.5,0-0.8
		C28.1,38,29.2,36.9,30,35.7z"/>
</g>
<g id="Email">
	<g>
		<path class="st1" d="M1.4,4.9c0.2-0.1,0.5-0.1,0.8-0.1h25.7c0.3,0,0.5,0.1,0.8,0.1L17.1,15.8c-1.2,1.1-3,1.1-4.2,0L1.4,4.9z
			 M29.7,24.2c0.2-0.3,0.3-0.7,0.3-1.1V7c0-0.3-0.1-0.6-0.2-0.8L19.1,16.3L29.7,24.2z M18.1,17.2c-0.9,0.8-2,1.2-3.1,1.2
			s-2.2-0.4-3.1-1.2L1.3,25c0.3,0.1,0.5,0.2,0.9,0.2h25.7c0.3,0,0.6-0.1,0.9-0.2L18.1,17.2z M0.2,6.1C0.1,6.4,0,6.7,0,7V23
			c0,0.4,0.1,0.8,0.3,1.1l10.6-7.9L0.2,6.1z"/>
	</g>
</g>
<g id="Guides">
</g>
</svg>
