<?xml version="1.0" encoding="utf-8"?>
<!-- Generator: Adobe Illustrator 18.1.1, SVG Export Plug-In . SVG Version: 6.00 Build 0)  -->
<svg version="1.1" id="Steamchat_Logo" xmlns="http://www.w3.org/2000/svg" xmlns:xlink="http://www.w3.org/1999/xlink" x="0px"
	 y="0px" width="107.1px" height="120px" viewBox="0 0 107.1 120" enable-background="new 0 0 107.1 120" xml:space="preserve">
<path id="Outer" fill="#2365B1" d="M107.1,53.5c0,29.6-24,53.5-53.5,53.5c-5.9,0-8.9,12.9-32,12.9c-1.1,0-4.3-2.5-2.1-3.8
	c8.1-4.6,11.8-14,10.2-14.8C12.1,92.7,0,74.5,0,53.5C0,24,24,0,53.5,0S107.1,24,107.1,53.5z"/>
<circle fill="#FFFFFF" cx="53.5" cy="53.5" r="46.1"/>
<g>
	<path fill="#2365B1" d="M55,39.1c-1.3,0-2.4-0.4-3.4-1.5c2-1.2,3.3-3.9,3.3-6.3c0-2.6-1.4-4.9-5.4-4.9s-6.7,2.3-6.7,6.7
		c0,10.8,16.5,12.2,16.5,28.1c0,12.3-10,18.3-20.6,18.3c-8.4,0-15.5-3.7-15.5-12.6c0-7.9,5.6-12,10.8-12c2.6,0,6.2,1,6.5,4.8
		c-4,0-8.6,1.8-8.6,6.9c0,3.7,2.3,7,7,7c4.9,0,8.5-3.6,8.5-9.8c0-12.5-15-17-15-27.8c0-7.6,7.5-13.1,16.9-13.1
		c3.4,0,11.8,0.7,11.8,8.8C61,35.9,58.6,39.1,55,39.1z"/>
	<path fill="#2365B1" d="M78.5,47.5c0-1.8-0.6-3-2-3c-4.7,0-9.5,13.7-9.5,21c0,4.5,1.9,6.1,4.4,6.1c2.9,0,6.5-2.1,8.8-4
		c-1.5,8.4-6.8,10.9-12.7,10.9c-6.8,0-11.4-3.4-11.4-11.7c0-8.5,4.8-26.1,19.7-26.1c6.5,0,8.1,3.4,8.1,6.8c0,3.7-1.9,5.3-3.9,5.3
		c-0.9,0-1.8-0.3-2.6-0.9C78.2,50.3,78.5,48.7,78.5,47.5z"/>
</g>
</svg>
