<?xml version="1.0" encoding="utf-8"?>
<!-- Generator: Adobe Illustrator 19.1.0, SVG Export Plug-In . SVG Version: 6.00 Build 0)  -->
<svg version="1.1" xmlns="http://www.w3.org/2000/svg" xmlns:xlink="http://www.w3.org/1999/xlink" x="0px" y="0px" width="30px"
	 height="150px" viewBox="0 0 30 150" style="enable-background:new 0 0 30 150;" xml:space="preserve">
<style type="text/css">
	.st0{fill:#FFFFFF;}
</style>
<g id="YouTube">
	<path class="st0" d="M29.8,120.2c-0.1-0.1-0.3-0.2-0.5-0.2H0.8c-0.2,0-0.4,0.1-0.5,0.2S0,120.5,0,120.8v28.5c0,0.2,0.1,0.4,0.2,0.5
		c0.1,0.1,0.3,0.2,0.5,0.2h28.5c0.2,0,0.4-0.1,0.5-0.2c0.1-0.1,0.2-0.3,0.2-0.5v-28.5C30,120.5,29.9,120.4,29.8,120.2z M28.2,136
		c0,2.1-0.3,4.3-0.3,4.3s-0.3,1.8-1,2.6c-1,1-2.1,1.1-2.6,1.1c-3.7,0.3-9.2,0.3-9.2,0.3s-6.8-0.1-9-0.3c-0.6-0.1-1.9-0.1-2.9-1.1
		c-0.8-0.8-1-2.6-1-2.6s-0.3-2.1-0.3-4.3v-2c0-2.1,0.3-4.3,0.3-4.3s0.3-1.8,1-2.6c1-1,2.1-1.1,2.6-1.1c3.7-0.3,9.2-0.3,9.2-0.3h0
		c0,0,5.5,0,9.2,0.3c0.5,0.1,1.6,0.1,2.6,1.1c0.8,0.8,1,2.6,1,2.6s0.3,2.1,0.3,4.3V136z"/>
	<path class="st0" d="M12.3,138.4l7.1-3.7l-7.1-3.7L12.3,138.4z"/>
</g>
<g id="Steam">
	<path class="st0" d="M3.6,103.4c0,0.4,0.1,0.7,0.3,1c0.2,0.3,0.4,0.5,0.7,0.6l1.6,0.9c-0.3,0.1-0.6,0.2-0.9,0.2
		c-0.7,0-1.3-0.3-1.9-0.8s-0.8-1.1-0.8-1.8c0-0.7,0.3-1.3,0.8-1.8c0.5-0.5,1.1-0.7,1.9-0.7c0.6,0,1.2,0.2,1.6,0.6s0.8,0.9,0.9,1.5
		L6.2,102c-0.3-0.2-0.6-0.3-1-0.3c-0.5,0-0.9,0.2-1.2,0.5C3.7,102.5,3.6,102.9,3.6,103.4z M16,106.7c0.7,0,1.3,0.3,1.8,0.8
		c0.5,0.5,0.8,1.1,0.8,1.8c0,0.7-0.3,1.3-0.8,1.8c-0.5,0.5-1.1,0.7-1.8,0.7c-0.6,0-1.2-0.2-1.7-0.6s-0.8-0.9-0.9-1.5l1.6,0.9
		c0.3,0.2,0.6,0.3,1,0.3c0.5,0,0.9-0.2,1.2-0.5c0.3-0.3,0.5-0.7,0.5-1.2c0-0.4-0.1-0.7-0.3-1s-0.4-0.5-0.7-0.6l-1.6-0.9
		C15.3,106.8,15.7,106.7,16,106.7z M23.6,99.7c0.6,0,1,0.2,1.4,0.6c0.4,0.4,0.6,0.9,0.6,1.4s-0.2,1-0.6,1.4
		c-0.4,0.4-0.9,0.6-1.4,0.6c-0.6,0-1-0.2-1.4-0.6c-0.4-0.4-0.6-0.9-0.6-1.4s0.2-1,0.6-1.4C22.5,99.9,23,99.7,23.6,99.7z M23.6,104.8
		c0.9,0,1.6-0.3,2.2-0.9c0.6-0.6,0.9-1.3,0.9-2.2c0-0.9-0.3-1.6-0.9-2.2c-0.6-0.6-1.3-0.9-2.2-0.9c-0.4,0-0.8,0.1-1.2,0.2
		c-0.4,0.2-0.7,0.4-1,0.7c-0.3,0.3-0.5,0.6-0.7,1c-0.2,0.4-0.2,0.8-0.2,1.2s0.1,0.8,0.2,1.2c0.2,0.4,0.4,0.7,0.7,1
		c0.3,0.3,0.6,0.5,1,0.6C22.7,104.7,23.1,104.8,23.6,104.8z M23.6,106.3c0.6,0,1.2-0.1,1.8-0.3c0.6-0.2,1-0.6,1.5-1
		c0.4-0.4,0.7-0.9,1-1.4c0.2-0.5,0.4-1.1,0.4-1.8s-0.1-1.2-0.4-1.8c-0.2-0.5-0.6-1-1-1.4c-0.4-0.4-0.9-0.7-1.5-1
		c-0.6-0.2-1.2-0.4-1.8-0.4c-0.6,0-1.2,0.1-1.8,0.3c-0.6,0.2-1,0.5-1.4,1s-0.7,0.9-1,1.4c-0.2,0.5-0.4,1.1-0.4,1.7l-3,4.1h0
		c-0.6,0-1.2,0.2-1.8,0.5l-5.4-3.2c-0.1-0.8-0.4-1.4-0.9-2c-0.5-0.6-1.2-0.9-2-1.1c-0.5-0.1-1,0-1.4,0.1c-0.4,0.1-0.9,0.3-1.2,0.6
		s-0.7,0.6-0.9,1s-0.4,0.8-0.5,1.3c-0.1,0.5-0.1,0.9,0,1.4c0.1,0.4,0.3,0.8,0.6,1.2c0.3,0.4,0.6,0.7,1,0.9s0.8,0.4,1.3,0.5
		c0.3,0.1,0.7,0.1,1,0c0.3-0.1,0.6-0.1,0.9-0.2l5.8,3.2c0.1,0.9,0.5,1.6,1.2,2.2c0.7,0.6,1.4,0.9,2.4,0.9c0.5,0,0.9-0.1,1.4-0.3
		c0.4-0.2,0.8-0.4,1.1-0.8c0.3-0.3,0.6-0.7,0.8-1.1c0.2-0.4,0.3-0.9,0.3-1.4L23.6,106.3L23.6,106.3L23.6,106.3z M29.2,90
		c0.2,0,0.4,0.1,0.5,0.2c0.1,0.1,0.2,0.3,0.2,0.5v28.5c0,0.2-0.1,0.4-0.2,0.5c-0.1,0.1-0.3,0.2-0.5,0.2H0.8c-0.2,0-0.4-0.1-0.5-0.2
		c-0.1-0.1-0.2-0.3-0.2-0.5V90.8c0-0.2,0.1-0.4,0.2-0.5S0.6,90,0.8,90H29.2L29.2,90z"/>
</g>
<g id="Facebook">
	<path class="st0" d="M30,60.7v28.5c0,0.2-0.1,0.4-0.2,0.5c-0.1,0.1-0.3,0.2-0.5,0.2H0.8c-0.2,0-0.4-0.1-0.5-0.2S0,89.5,0,89.3V60.7
		c0-0.2,0.1-0.4,0.2-0.5S0.6,60,0.8,60h28.5c0.2,0,0.4,0.1,0.5,0.2S30,60.5,30,60.7z M20.9,86.5V75.9h3.9l0.2-3.8h-4.1v-2.8
		c0-0.5,0.1-0.9,0.3-1.3c0.2-0.3,0.6-0.4,1.3-0.4h2.4l0.1-3.6C24.6,64,24.3,64,24,64c-0.3,0-0.6,0-0.8,0c-0.3,0-0.6,0-0.9,0
		c-0.9-0.1-1.7,0-2.4,0.3c-0.7,0.3-1.2,0.6-1.7,1.1c-0.4,0.5-0.8,1-1,1.6c-0.2,0.6-0.3,1.2-0.3,1.9v3.3h-2.8v3.8h2.8v10.6H20.9
		L20.9,86.5z"/>
</g>
<g id="Twitter">
	<path class="st0" d="M29.8,30.2c-0.1-0.1-0.3-0.2-0.5-0.2H0.8c-0.2,0-0.4,0.1-0.5,0.2S0,30.5,0,30.8v28.5c0,0.2,0.1,0.4,0.2,0.5
		C0.4,59.9,0.6,60,0.8,60h28.5c0.2,0,0.4-0.1,0.5-0.2c0.1-0.1,0.2-0.3,0.2-0.5V30.8C30,30.5,29.9,30.4,29.8,30.2z M27.2,38
		c-0.5,0.6-1.1,1.1-1.8,1.5c0,0.2,0,0.3,0,0.4c0,0.1,0,0.3,0,0.4c0,0.8-0.1,1.7-0.3,2.7c-0.2,1-0.5,2-0.9,3c-0.4,1-0.9,2-1.5,3
		c-0.6,1-1.3,1.9-2.1,2.7c-0.8,0.8-1.8,1.6-2.8,2.2c-1,0.6-2.2,1.1-3.5,1.4c-1.5,0.3-3,0.5-4.5,0.5c-0.6,0-1.3,0-2-0.1
		c-0.7-0.1-1.4-0.2-2.1-0.4s-1.4-0.4-2.1-0.7c-0.7-0.3-1.3-0.7-1.9-1.2c1.5,0.2,3,0.1,4.3-0.4c1.4-0.5,2.6-1.1,3.7-2
		c-0.3,0-0.6,0-1-0.1c-0.4,0-0.9-0.2-1.4-0.4c-0.5-0.2-1-0.6-1.5-1.1c-0.5-0.5-0.9-1.2-1.3-2.1c0.1,0,0.3,0.1,0.5,0.1
		c0.2,0,0.4,0,0.7,0c0.2,0,0.5,0,0.7-0.1c0.2,0,0.4-0.1,0.6-0.1c-1-0.3-1.8-0.7-2.4-1.2c-0.6-0.5-1-1.1-1.3-1.6S3.1,43.4,3,42.9
		c-0.1-0.5-0.1-0.9-0.1-1.1c0.3,0.2,0.6,0.3,1.1,0.5c0.5,0.2,0.9,0.3,1.3,0.2c-0.8-0.7-1.4-1.3-1.7-2C3.2,39.9,3,39.2,3,38.6
		c-0.1-0.6,0-1.2,0.1-1.8c0.1-0.6,0.3-1.2,0.6-1.7c1.1,1.2,2.1,2.2,3.2,3c1.1,0.8,2.1,1.3,3.1,1.7c1,0.4,1.9,0.7,2.7,0.8
		c0.8,0.1,1.6,0.2,2.2,0.2c-0.1-0.8-0.1-1.5,0-2.2c0.1-0.7,0.3-1.4,0.7-1.9c0.3-0.6,0.8-1.1,1.4-1.5c0.6-0.4,1.2-0.7,2-1
		c1-0.3,1.9-0.3,2.8,0c0.9,0.3,1.6,0.8,2.3,1.5c0.3,0,0.7-0.1,1.3-0.3c0.6-0.2,1.3-0.5,2.2-1c-0.1,0.2-0.2,0.4-0.3,0.7
		c-0.1,0.3-0.3,0.6-0.5,0.9c-0.2,0.3-0.4,0.6-0.7,0.9c-0.3,0.3-0.6,0.5-0.9,0.7c0.3-0.1,0.6-0.1,1-0.2c0.3-0.1,0.6-0.2,1-0.3
		s0.8-0.3,1.2-0.5C28,37,27.7,37.5,27.2,38z"/>
</g>
<g id="Email">
	<path class="st0" d="M0.4,23.3c0,0-0.1,0.1-0.2,0.1H0.2C0.1,23.3,0,23.2,0,23.1V10.4c0-0.1,0-0.2,0.1-0.2c0.1,0,0.2,0,0.3,0L8.9,15
		c0.1,0,0.1,0.1,0.1,0.2c0,0.1,0,0.2-0.1,0.2L0.4,23.3z M28.9,26.8c0.1,0.1,0.1,0.2,0.1,0.3c-0.1,0.1-0.1,0.2-0.3,0.2H1
		c-0.1,0-0.3-0.1-0.5-0.2c-0.1,0-0.1-0.1-0.1-0.2c0-0.1,0-0.1,0.1-0.2l10.8-10c0.1-0.1,0.2-0.1,0.3,0l2.9,1.6c0.4,0.2,0.8,0.2,1.2,0
		l3.2-1.9c0.1-0.1,0.2-0.1,0.3,0L28.9,26.8z M29.9,10c0.1,0,0.1,0.1,0.1,0.2v13.4c0,0.1-0.1,0.2-0.2,0.2c0,0-0.1,0-0.1,0
		c-0.1,0-0.1,0-0.2-0.1l-8.1-8.7c-0.1-0.1-0.1-0.1-0.1-0.2c0-0.1,0-0.1,0.1-0.2l8.1-4.7C29.7,9.9,29.8,9.9,29.9,10z M29,2.8
		c0.3,0,0.5,0.1,0.7,0.3C29.9,3.3,30,3.5,30,3.8v3.1c0,0.1-0.1,0.2-0.2,0.2c-0.1,0-0.2,0.1-0.4,0.2l-14.3,8.4c0,0-0.1,0-0.1,0
		c-0.1,0-0.1,0-0.1,0L0.2,7.2C0.1,7.1,0,7.1,0,7V3.8c0-0.3,0.1-0.5,0.3-0.7C0.5,2.9,0.7,2.8,1,2.8L29,2.8L29,2.8z"/>
</g>
<g id="Guides">
</g>
</svg>
