<svg id="Capa_1" data-name="Capa 1" xmlns="http://www.w3.org/2000/svg" width="32" height="24.76" viewBox="0 0 32 24.76"><title>index_type_interview</title><path d="M27.08,3.78A6.28,6.28,0,0,0,20,7.27l5.91,8.83a6.26,6.26,0,0,0,6-4.91A6.34,6.34,0,0,0,27.08,3.78Z" transform="translate(0 -3.62)" style="fill:#fff"/><path d="M9,17.2C6.31,19.43,3.65,21.63,1,23.9a2.4,2.4,0,0,0-.64,3.29,2.23,2.23,0,0,0,3.2.83c3.1-1.73,6.2-3.48,9.32-5.25l-3.81-5.7Z" transform="translate(0 -3.62)" style="fill:#fff"/><polygon points="23.92 12.23 19.46 5.57 16.89 1.72 7.31 8.07 10.26 12.48 14.22 18.42 16.84 22.33 26.42 15.98 23.92 12.23" style="fill:#fff"/></svg>