<?xml version="1.0" encoding="UTF-8" standalone="no"?>
<!-- Generator: Adobe Illustrator 19.1.0, SVG Export Plug-In . SVG Version: 6.00 Build 0)  -->
<svg id="Layer_1" style="enable-background:new 15 8 260 200" xmlns="http://www.w3.org/2000/svg" xml:space="preserve" height="200px" viewBox="15 8 260 200" width="260px" version="1.1" y="0px" x="0px" xmlns:xlink="http://www.w3.org/1999/xlink">
<style type="text/css">
	.st0{fill:#2165AF;}
	.st1{fill:#FFFFFF;}
</style>
<g id="Hover">
	<path class="st0" d="m65 20.2c0 0.3-0.2 0.5-0.4 0.6-0.1 0-0.2 0.1-0.3 0.1-0.2 0-0.3-0.1-0.4-0.2l-3.7-3.1h-2c-0.4 0-0.7-0.3-0.7-0.7v-2.7c0-0.4 0.3-0.7 0.7-0.7h2l3.7-3.1c0.2-0.2 0.5-0.2 0.7-0.1 0.3 0.2 0.4 0.4 0.4 0.7v9.2zm2.6-1.1c-0.2 0-0.4-0.1-0.5-0.2l-0.1-0.1c-0.2-0.2-0.3-0.6-0.1-0.9 0.5-0.7 0.8-1.5 0.8-2.4s-0.3-1.8-0.9-2.5c-0.2-0.3-0.2-0.7 0-0.9l0.1-0.1c0.2-0.1 0.4-0.1 0.6-0.1s0.4 0.1 0.5 0.2c0.8 1 1.2 2.2 1.2 3.4s-0.4 2.3-1.1 3.3c-0.1 0.2-0.3 0.3-0.5 0.3zm2.8 2.1c-0.1 0.1-0.3 0.2-0.5 0.2s-0.4-0.1-0.5-0.2l-0.1-0.1c-0.3-0.2-0.3-0.6 0-0.9 1.1-1.3 1.7-3 1.7-4.7 0-1.8-0.6-3.5-1.8-4.8-0.2-0.3-0.2-0.7 0-0.9l0.1-0.1c0.1-0.1 0.3-0.2 0.5-0.2s0.4 0.1 0.5 0.2c1.4 1.7 2.2 3.7 2.2 5.9 0 2-0.7 4-2.1 5.6z"/>
</g>
<g id="Muted">
	<path class="st1" d="m48.8 20.2c0 0.3-0.2 0.5-0.4 0.6-0.1 0-0.2 0.1-0.3 0.1-0.2 0-0.3-0.1-0.4-0.2l-3.7-3.1h-2c-0.4 0-0.7-0.3-0.7-0.7v-2.7c0-0.4 0.3-0.7 0.7-0.7h2l3.7-3.1c0.2-0.2 0.5-0.2 0.7-0.1s0.4 0.4 0.4 0.6v9.3z"/>
</g>
<g id="Idle__x28_White_x29_">
	<path class="st1" d="m25 20.2c0 0.3-0.2 0.5-0.4 0.6-0.1 0-0.2 0.1-0.3 0.1-0.2 0-0.3-0.1-0.4-0.2l-3.7-3.1h-2c-0.4 0-0.7-0.3-0.7-0.7v-2.7c0-0.4 0.3-0.7 0.7-0.7h2l3.7-3.1c0.2-0.2 0.5-0.2 0.7-0.1 0.3 0.2 0.4 0.4 0.4 0.7v9.2zm2.6-1.1c-0.2 0-0.4-0.1-0.5-0.2l-0.1-0.1c-0.2-0.2-0.3-0.6-0.1-0.9 0.5-0.7 0.8-1.5 0.8-2.4s-0.3-1.8-0.9-2.5c-0.2-0.3-0.2-0.7 0-0.9l0.1-0.1c0.2-0.1 0.4-0.1 0.6-0.1s0.4 0.1 0.5 0.2c0.8 1 1.2 2.2 1.2 3.4s-0.4 2.3-1.1 3.3c-0.1 0.2-0.3 0.3-0.5 0.3zm2.8 2.1c-0.1 0.1-0.3 0.2-0.5 0.2s-0.4-0.1-0.5-0.2l-0.1-0.1c-0.3-0.2-0.3-0.6 0-0.9 1.1-1.3 1.7-3 1.7-4.7 0-1.8-0.6-3.5-1.8-4.8-0.2-0.3-0.2-0.7 0-0.9l0.1-0.1c0.1-0.1 0.3-0.2 0.5-0.2s0.4 0.1 0.5 0.2c1.4 1.7 2.2 3.7 2.2 5.9 0 2-0.7 4-2.1 5.6z"/>
</g>
<g id="Pause__x28_Hover_x29_">
	<path class="st1" d="m225 108c-27.6 0-50 22.4-50 50s22.4 50 50 50 50-22.4 50-50-22.4-50-50-50zm-2.9 67.5h-14.6v-35h14.6v35zm20.4 0h-14.6v-35h14.6v35z"/>
</g>
<g id="Pause__x28_Idle_x29_">
	<path class="st1" d="m125 108c-27.6 0-50 22.4-50 50s22.4 50 50 50 50-22.4 50-50-22.4-50-50-50zm0 90.6c-22.4 0-40.6-18.2-40.6-40.6s18.2-40.6 40.6-40.6 40.6 18.2 40.6 40.6-18.2 40.6-40.6 40.6z"/>
	<path class="st1" d="m107.5 140.5h14.6v35h-14.6v-35zm20.4 0h14.6v35h-14.6v-35z"/>
</g>
<g id="Play__x28_Hover_x29_">
	<path class="st1" d="m225 8c-27.6 0-50 22.4-50 50s22.4 50 50 50 50-22.4 50-50-22.4-50-50-50zm-12.5 28.1l37.5 21.9-37.5 21.9v-43.8z"/>
</g>
<g id="Play__x28_Idle_x29_">
	<path class="st1" d="m125 8c-27.6 0-50 22.4-50 50s22.4 50 50 50 50-22.4 50-50-22.4-50-50-50zm0 90.6c-22.4 0-40.6-18.2-40.6-40.6s18.2-40.6 40.6-40.6 40.6 18.2 40.6 40.6-18.2 40.6-40.6 40.6zm-12.5-62.5l37.5 21.9-37.5 21.9v-43.8z"/>
</g>
</svg>
