<?xml version="1.0" encoding="UTF-8" standalone="no"?>
<!-- Generator: Adobe Illustrator 18.1.1, SVG Export Plug-In . SVG Version: 6.00 Build 0)  -->
<svg xmlns="http://www.w3.org/2000/svg" xml:space="preserve" height="100px" width="22px" version="1.1" y="0px" x="0px" xmlns:xlink="http://www.w3.org/1999/xlink" viewBox="0 0 22 100" enable-background="new 0 0 22 100">
<g id="Mobile" fill="#999">
	<path id="Next_2_" d="m22 75l-21.3 25-0.7-0.7 20.7-24.3-20.7-24.3 0.7-0.7 21.3 25z"/>
	<path id="Prev_2_" d="m0 25l21.3-25 0.7 0.7-20.7 24.3 20.7 24.3-0.7 0.7-21.3-25z"/>
</g>
<g id="Large" fill="#999">
	<path id="Next_1_" d="m-8 105l-30.9 35-1.1-1 30-34-30-34 1.1-1 30.9 35z"/>
	<path id="Prev_1_" d="m-40 35l30.9-35 1.1 1-30 34 30 34-1.1 1-30.9-35z"/>
</g>
</svg>
