<?xml version="1.0" encoding="utf-8"?>
<!-- Generator: Adobe Illustrator 18.1.1, SVG Export Plug-In . SVG Version: 6.00 Build 0)  -->
<svg version="1.1" xmlns="http://www.w3.org/2000/svg" xmlns:xlink="http://www.w3.org/1999/xlink" x="0px" y="0px" width="22px"
	 height="100px" viewBox="0 0 22 100" enable-background="new 0 0 22 100" xml:space="preserve">
<g id="Mobile">
	<path id="Next_2_" fill="#999999" d="M22,75L0.7,100L0,99.3L20.7,75L0,50.7L0.7,50L22,75z"/>
	<path id="Prev_2_" fill="#999999" d="M0,25L21.3,0L22,0.7L1.3,25L22,49.3L21.3,50L0,25z"/>
</g>
<g id="Large">
	<path id="Next_1_" fill="#999999" d="M-8,105l-30.9,35l-1.1-1l30-34l-30-34l1.1-1L-8,105z"/>
	<path id="Prev_1_" fill="#999999" d="M-40,35L-9.1,0L-8,1l-30,34l30,34l-1.1,1L-40,35z"/>
</g>
</svg>
