<svg xmlns="http://www.w3.org/2000/svg" width="40" height="15" viewBox="0 0 40 15"><title>player-volume</title><path d="M29.78.09a.94.94,0,0,0-1,.11L24.36,3.75H20.94a.94.94,0,0,0-.94.94v5.63a.94.94,0,0,0,.94.94h3.42l4.43,3.55a.94.94,0,0,0,1.52-.73V.94A.94.94,0,0,0,29.78.09Zm-1.34,12L25.27,9.58a.94.94,0,0,0-.59-.21H21.88V5.62h2.81a.94.94,0,0,0,.59-.21l3.16-2.53ZM39.73,9.65A.94.94,0,1,1,38.4,11L36.25,8.83,34.1,11a.94.94,0,1,1-1.33-1.33L34.92,7.5,32.77,5.35A.94.94,0,1,1,34.1,4l2.15,2.15L38.4,4a.94.94,0,1,1,1.33,1.33L37.58,7.5Z" transform="translate(0 0)" style="fill:#fff"/><path d="M9.29,14.93a.93.93,0,0,1-.58-.2L4.32,11.22H.93A.93.93,0,0,1,0,10.29V4.71a.93.93,0,0,1,.93-.93H4.32L8.71.27A.93.93,0,0,1,10.22,1V14a.93.93,0,0,1-.93.93ZM1.86,9.36H4.65a.93.93,0,0,1,.58.2l3.14,2.51V2.93L5.23,5.44a.93.93,0,0,1-.58.2H1.86ZM16.36,15a.93.93,0,0,1-.66-1.59,8.38,8.38,0,0,0,0-11.83A.93.93,0,0,1,17,.27a10.24,10.24,0,0,1,0,14.46A.93.93,0,0,1,16.36,15Zm-3.28-3.29a.93.93,0,0,1-.66-1.59,3.72,3.72,0,0,0,0-5.26.93.93,0,1,1,1.31-1.31,5.58,5.58,0,0,1,0,7.89A.93.93,0,0,1,13.07,11.71Z" transform="translate(0 0)" style="fill:#fff"/></svg>