<svg xmlns="http://www.w3.org/2000/svg" width="40" height="15"><path d="M29.78.09a.94.94 0 0 0-1 .11l-4.42 3.55h-3.42a.94.94 0 0 0-.94.94v5.63a.94.94 0 0 0 .94.94h3.42l4.43 3.55a.94.94 0 0 0 1.52-.73V.94a.94.94 0 0 0-.53-.85zm-1.34 12l-3.17-2.51a.94.94 0 0 0-.59-.21h-2.8V5.62h2.81a.94.94 0 0 0 .59-.21l3.16-2.53zm11.29-2.44A.948.948 0 1 1 38.4 11l-2.15-2.17L34.1 11a.94.94 0 1 1-1.33-1.33l2.15-2.17-2.15-2.15A.948.948 0 1 1 34.1 4l2.15 2.15L38.4 4a.94.94 0 1 1 1.33 1.33L37.58 7.5z" fill="#fff"/><path d="M9.29 14.93a.93.93 0 0 1-.58-.2l-4.39-3.51H.93a.93.93 0 0 1-.93-.93V4.71a.93.93 0 0 1 .93-.93h3.39L8.71.27a.93.93 0 0 1 1.51.73v13a.93.93 0 0 1-.93.93zM1.86 9.36h2.79a.93.93 0 0 1 .58.2l3.14 2.51V2.93L5.23 5.44a.93.93 0 0 1-.58.2H1.86zM16.36 15a.93.93 0 0 1-.66-1.59 8.38 8.38 0 0 0 0-11.83A.93.93 0 0 1 17 .27a10.24 10.24 0 0 1 0 14.46.93.93 0 0 1-.64.27zm-3.28-3.29a.93.93 0 0 1-.66-1.59 3.72 3.72 0 0 0 0-5.26.93.93 0 1 1 1.31-1.31 5.58 5.58 0 0 1 0 7.89.93.93 0 0 1-.66.27z" fill="#fff"/></svg>