<svg xmlns="http://www.w3.org/2000/svg" width="10" height="24" viewBox="0 0 10 24"><title>index_archives_play</title><path d="M8.5,12A1.5,1.5,0,0,0,7,13.5v9a1.5,1.5,0,1,0,3,0v-9A1.5,1.5,0,0,0,8.5,12Z" transform="translate(-2 0)" style="fill:#fff"/><path d="M3.5,12A1.5,1.5,0,0,0,2,13.5v9a1.5,1.5,0,1,0,3,0v-9A1.5,1.5,0,0,0,3.5,12Z" transform="translate(-2 0)" style="fill:#fff"/><path d="M11.53,6.85l-8,5A1,1,0,0,1,2,11V1A1,1,0,0,1,3.53.15l8,5a1,1,0,0,1,0,1.69Z" transform="translate(-2 0)" style="fill:#fff"/></svg>