<svg id="Capa_1" data-name="Capa 1" xmlns="http://www.w3.org/2000/svg" width="32" height="30.66" viewBox="0 0 32 30.66"><title>index_type_special</title><path d="M31.31,14.56A2.3,2.3,0,0,0,30,10.65L22.28,9.52A1,1,0,0,1,21.52,9L18.06,2a2.29,2.29,0,0,0-4.12,0L10.48,9a1,1,0,0,1-.76.55L2,10.65A2.3,2.3,0,0,0,.69,14.57L6.3,20a1,1,0,0,1,.29.9L5.27,28.64a2.25,2.25,0,0,0,.5,1.86,2.32,2.32,0,0,0,2.83.56l6.93-3.64a1,1,0,0,1,.94,0l6.93,3.64a2.27,2.27,0,0,0,1.07.27,2.3,2.3,0,0,0,1.76-.83,2.25,2.25,0,0,0,.5-1.86l-1.32-7.72a1,1,0,0,1,.29-.9Z" transform="translate(0 -0.67)" style="fill:#fff"/></svg>