<svg xmlns="http://www.w3.org/2000/svg" width="16" height="16" viewBox="0 0 16 16"><path d="M8,0A7.14,7.14,0,0,0,4.81,13.53c.22.11-.28,1.36-1.36,2-.29.16.14.5.28.5C6.82,16,7.22,14.28,8,14.28A7.14,7.14,0,0,0,8,0ZM8,13.29a6.15,6.15,0,1,1,6.15-6.15A6.15,6.15,0,0,1,8,13.29Zm3.21-6.39a1.68,1.68,0,0,0,.12-.58c0-.23-.08-.4-.26-.4-.63,0-1.26,1.83-1.26,2.8,0,.61.25.81.59.81A2.15,2.15,0,0,0,11.56,9a1.57,1.57,0,0,1-1.69,1.45,1.32,1.32,0,0,1-1.46-1A2.74,2.74,0,0,1,6,10.59c-1.11,0-2.07-.49-2.07-1.68a1.49,1.49,0,0,1,1.44-1.6c.34,0,.83.14.86.65-.53,0-1.14.24-1.14.92A.89.89,0,0,0,6,9.81a1.15,1.15,0,0,0,1.13-1.3c0-1.67-2-2.27-2-3.71,0-1,1-1.75,2.26-1.75.46,0,1.57.1,1.57,1.17,0,.57-.31,1-.8,1A.56.56,0,0,1,7.74,5a1,1,0,0,0,.44-.84c0-.34-.19-.66-.72-.66a.82.82,0,0,0-.9.89c0,1.24,1.62,1.56,2.08,3a2.56,2.56,0,0,1,2.35-2c.87,0,1.09.45,1.09.91s-.25.7-.52.7A.58.58,0,0,1,11.21,6.91Z"/></svg>