<svg xmlns="http://www.w3.org/2000/svg" height="120" width="107.1"><path d="M107.1 53.5c0 29.6-24 53.5-53.5 53.5-5.9 0-8.9 12.9-32 12.9-1.1 0-4.3-2.5-2.1-3.8 8.1-4.6 11.8-14 10.2-14.8C12.1 92.7 0 74.5 0 53.5 0 24 24 0 53.5 0s53.6 24 53.6 53.5z" fill="#2365B1"/><circle cy="53.5" cx="53.5" r="46.1" fill="#fff"/><g fill="#2365B1"><path d="M55 39.1c-1.3 0-2.4-.4-3.4-1.5 2-1.2 3.3-3.9 3.3-6.3 0-2.6-1.4-4.9-5.4-4.9s-6.7 2.3-6.7 6.7c0 10.8 16.5 12.2 16.5 28.1 0 12.3-10 18.3-20.6 18.3-8.4 0-15.5-3.7-15.5-12.6 0-7.9 5.6-12 10.8-12 2.6 0 6.2 1 6.5 4.8-4 0-8.6 1.8-8.6 6.9 0 3.7 2.3 7 7 7 4.9 0 8.5-3.6 8.5-9.8 0-12.5-15-17-15-27.8 0-7.6 7.5-13.1 16.9-13.1 3.4 0 11.8.7 11.8 8.8-.1 4.2-2.5 7.4-6.1 7.4z"/><path d="M78.5 47.5c0-1.8-.6-3-2-3-4.7 0-9.5 13.7-9.5 21 0 4.5 1.9 6.1 4.4 6.1 2.9 0 6.5-2.1 8.8-4-1.5 8.4-6.8 10.9-12.7 10.9-6.8 0-11.4-3.4-11.4-11.7 0-8.5 4.8-26.1 19.7-26.1 6.5 0 8.1 3.4 8.1 6.8 0 3.7-1.9 5.3-3.9 5.3-.9 0-1.8-.3-2.6-.9.8-1.6 1.1-3.2 1.1-4.4z"/></g></svg>