<svg xmlns="http://www.w3.org/2000/svg" xmlns:xlink="http://www.w3.org/1999/xlink" width="15" height="15" viewBox="0 0 15 15"><defs><linearGradient id="a" x1="7.49" y1=".06" x2="7.51" y2="14.82" gradientTransform="matrix(1, 0, 0, -1, 0, 15)" gradientUnits="userSpaceOnUse"><stop offset="0" stop-color="#bb5bfd"/><stop offset="1" stop-color="#eb82d6"/></linearGradient></defs><path d="M3.44,0h8.12A3.44,3.44,0,0,1,15,3.44v8.12A3.44,3.44,0,0,1,11.56,15H3.44A3.44,3.44,0,0,1,0,11.56V3.44A3.44,3.44,0,0,1,3.44,0Z" fill="url(#a)"/><path d="M7.49.91a6.44,6.44,0,1,0,6.44,6.44A6.44,6.44,0,0,0,7.49.91Zm0,.71A5.73,5.73,0,1,1,1.76,7.35,5.73,5.73,0,0,1,7.49,1.62Z" fill="#fff"/><path d="M10.17,3.05,5.7,4.26h0V6.08h0V9.33A1.29,1.29,0,0,0,5,9.14a1.13,1.13,0,0,0-1.2,1,1.13,1.13,0,0,0,1.2,1,1.11,1.11,0,0,0,1.2-1V9.88L6.17,6,9.7,5V8.58A1.33,1.33,0,0,0,9,8.35a1.12,1.12,0,0,0-1.2,1,1.11,1.11,0,0,0,1.2,1,1.14,1.14,0,0,0,1.22-1V3.05Z" fill="#fff"/></svg>