<svg xmlns="http://www.w3.org/2000/svg" xmlns:xlink="http://www.w3.org/1999/xlink" width="15" height="15" viewBox="0 0 15 15"><defs><linearGradient id="a" x1="6.9" y1="15.08" x2="-2.89" y2="5.3" gradientTransform="matrix(1, 0, 0, -1, 0, 16)" gradientUnits="userSpaceOnUse"><stop offset="0" stop-color="#00a0ff"/><stop offset=".01" stop-color="#00a1ff"/><stop offset=".26" stop-color="#00beff"/><stop offset=".51" stop-color="#00d2ff"/><stop offset=".76" stop-color="#00dfff"/><stop offset="1" stop-color="#00e3ff"/></linearGradient><linearGradient id="b" x1="13.92" y1="8.5" x2="-.2" y2="8.5" gradientTransform="matrix(1, 0, 0, -1, 0, 16)" gradientUnits="userSpaceOnUse"><stop offset="0" stop-color="#ffe000"/><stop offset=".41" stop-color="#ffbd00"/><stop offset=".78" stop-color="orange"/><stop offset="1" stop-color="#ff9c00"/></linearGradient><linearGradient id="c" x1="8.66" y1="7.16" x2="-4.61" y2="-6.11" gradientTransform="matrix(1, 0, 0, -1, 0, 16)" gradientUnits="userSpaceOnUse"><stop offset="0" stop-color="#ff3a44"/><stop offset="1" stop-color="#c31162"/></linearGradient><linearGradient id="d" x1="-1.56" y1="20.06" x2="4.37" y2="14.13" gradientTransform="matrix(1, 0, 0, -1, 0, 16)" gradientUnits="userSpaceOnUse"><stop offset="0" stop-color="#32a071"/><stop offset=".07" stop-color="#2da771"/><stop offset=".48" stop-color="#15cf74"/><stop offset=".8" stop-color="#06e775"/><stop offset="1" stop-color="#00f076"/></linearGradient></defs><path d="M.27.23A1.17,1.17,0,0,0,0,1.05V14a1.17,1.17,0,0,0,.27.82l0,0L7.54,7.59V7.41L.31.19Z" fill="url(#a)"/><path d="M10,10,7.54,7.59V7.41L10,5,10,5l2.85,1.62a.88.88,0,0,1,0,1.68L10,10Z" fill="url(#b)"/><path d="M10,10,7.54,7.5.27,14.77a.94.94,0,0,0,1.21,0L10,10" fill="url(#c)"/><path d="M10,5,1.48.2A.94.94,0,0,0,.27.23L7.54,7.5Z" fill="url(#d)"/><path d="M10,9.91,1.48,14.72a1,1,0,0,1-1.17,0h0l0,0h0l0,0h0a1,1,0,0,0,1.17,0L10,10Z" style="isolation:isolate" opacity="0.2"/><path d="M.27,14.68A1.17,1.17,0,0,1,0,13.86V14a1.17,1.17,0,0,0,.27.82l0,0Z" style="isolation:isolate" opacity="0.12"/><path d="M12.85,8.26,10,9.91,10,10l2.85-1.62a1,1,0,0,0,.62-.84h0A1.11,1.11,0,0,1,12.85,8.26Z" style="isolation:isolate" opacity="0.12"/><path d="M1.48.28,12.85,6.74a1.11,1.11,0,0,1,.62.76h0a1,1,0,0,0-.62-.84L1.48.2C.67-.27,0,.12,0,1.05v.09C0,.2.67-.18,1.48.28Z" style="isolation:isolate" fill="#fff" opacity="0.25"/></svg>